<svg xmlns="http://www.w3.org/2000/svg" viewBox="0 0 100 100" width="32" height="32">
  <!-- Top half (red) -->
  <path d="M 50 5 A 45 45 0 0 1 95 50 L 65 50 A 15 15 0 0 0 35 50 L 5 50 A 45 45 0 0 1 50 5 Z" fill="#EE1515"/>
  <!-- Bottom half (white) -->
  <path d="M 50 95 A 45 45 0 0 1 5 50 L 35 50 A 15 15 0 0 0 65 50 L 95 50 A 45 45 0 0 1 50 95 Z" fill="#FFFFFF"/>
  <!-- Center line -->
  <line x1="5" y1="50" x2="35" y2="50" stroke="#222222" stroke-width="3"/>
  <line x1="65" y1="50" x2="95" y2="50" stroke="#222222" stroke-width="3"/>
  <!-- Outer circle border -->
  <circle cx="50" cy="50" r="45" fill="none" stroke="#222222" stroke-width="5"/>
  <!-- Center button -->
  <circle cx="50" cy="50" r="12" fill="#FFFFFF" stroke="#222222" stroke-width="3"/>
  <circle cx="50" cy="50" r="6" fill="#FFFFFF" stroke="#222222" stroke-width="2"/>
</svg>
